<svg width="421" height="117" viewBox="0 0 421 117" fill="none" xmlns="http://www.w3.org/2000/svg">
<path d="M263.986 0C265.079 7.9814 271.117 10.2795 274 10.4307C276.872 10.2801 282.874 7.99877 284 0.0908203V0H411V0.0908203C412.126 7.99877 418.128 10.2801 421 10.4307V106.569C414.875 107.441 412.042 111.669 411 114.871V117H284V114.871C282.958 111.669 280.125 107.441 274 106.569C266.353 107.658 263.835 113.977 263.531 117H10.4688C10.1653 113.977 7.64651 107.658 0 106.569V10.4307C2.88261 10.2795 8.92131 7.9814 10.0137 0H263.986Z" fill="#F7F7F7"/>
<line x1="274.5" y1="11" x2="274.5" y2="106" stroke="black" stroke-dasharray="2 2"/>
</svg>
